<svg width="186" height="43" viewBox="0 0 186 43" fill="none" xmlns="http://www.w3.org/2000/svg">
<path d="M17.5 8.29148V16.0045C12.1392 16.0045 7.77778 20.3296 7.77778 25.6457C7.77778 30.9619 12.1392 35.287 17.5 35.287V43C7.83417 43 0 35.2311 0 25.6457C0 16.0604 7.83417 8.29148 17.5 8.29148Z" fill="#FF9B04"/>
<path d="M35 17.3543C35 26.9396 27.1658 34.7085 17.5 34.7085V26.9955C22.8608 26.9955 27.2222 22.6704 27.2222 17.3543C27.2222 12.0381 22.8608 7.713 17.5 7.713V0C27.1658 0 35 7.76892 35 17.3543Z" fill="#FF9B04"/>
<path d="M53.705 35.3334C52.445 35.3334 51.2783 35.2517 50.205 35.0884C49.155 34.9251 48.0583 34.6451 46.915 34.2484C45.6783 33.8284 44.71 33.1517 44.01 32.2184C43.31 31.2617 42.96 30.1067 42.96 28.7534V18.8134C42.96 17.6934 43.205 16.6901 43.695 15.8034C44.2083 14.9167 44.8617 14.2167 45.655 13.7034C46.355 13.2601 47.2183 12.8867 48.245 12.5834C49.2717 12.2801 50.2283 12.0934 51.115 12.0234C51.9317 11.9534 52.795 11.9184 53.705 11.9184C54.7783 11.9184 55.7117 11.9651 56.505 12.0584C57.2983 12.1284 58.185 12.2917 59.165 12.5484C60.285 12.8751 61.2067 13.2717 61.93 13.7384C62.6533 14.2051 63.26 14.8584 63.75 15.6984C64.2633 16.5617 64.52 17.6001 64.52 18.8134V28.7534C64.52 30.0134 64.1817 31.0984 63.505 32.0084C62.8517 32.9184 61.9417 33.6067 60.775 34.0734C58.675 34.9134 56.3183 35.3334 53.705 35.3334ZM53.775 31.4484C54.545 31.4484 55.1867 31.4251 55.7 31.3784C56.2367 31.3084 56.785 31.1917 57.345 31.0284C57.905 30.8651 58.325 30.5967 58.605 30.2234C58.9083 29.8267 59.06 29.3367 59.06 28.7534V18.7784C59.06 17.7051 58.6283 16.9467 57.765 16.5034C56.9017 16.0367 55.56 15.8034 53.74 15.8034C51.92 15.8034 50.5783 16.0251 49.715 16.4684C48.8517 16.9117 48.42 17.6817 48.42 18.7784V28.7534C48.42 29.3367 48.5717 29.8267 48.875 30.2234C49.1783 30.5967 49.6217 30.8651 50.205 31.0284C50.765 31.1917 51.3017 31.3084 51.815 31.3784C52.3517 31.4251 53.005 31.4484 53.775 31.4484ZM68.9139 12.2684H79.1339C82.1672 12.2684 84.3605 12.6417 85.7139 13.3884C87.0672 14.1117 87.7439 15.3367 87.7439 17.0634V21.0534C87.7439 22.3834 87.2655 23.4334 86.3089 24.2034C85.3755 24.9501 84.1272 25.4284 82.5639 25.6384L89.1439 34.9834H82.8439L76.8939 26.0584H74.3739V34.9834H68.9139V12.2684ZM79.0639 22.4534C80.3472 22.4534 81.2222 22.2901 81.6889 21.9634C82.1555 21.6134 82.3889 20.9484 82.3889 19.9684V18.3584C82.3889 17.5184 82.1322 16.9467 81.6189 16.6434C81.1289 16.3167 80.2772 16.1534 79.0639 16.1534H74.3739V22.4534H79.0639ZM98.3128 12.2684H104.963L113.153 34.9834H107.623L105.593 28.9984H97.2978L95.3028 34.9834H89.9128L98.3128 12.2684ZM104.403 25.3584L101.533 16.8184H101.393L98.5228 25.3584H104.403ZM115.672 12.2684H121.202L132.192 27.7734V12.2684H137.057V34.9834H131.527L120.537 19.2334V34.9834H115.672V12.2684ZM152.771 35.3334C151.464 35.3334 150.309 35.2751 149.306 35.1584C148.303 35.0417 147.311 34.8434 146.331 34.5634C145.281 34.2834 144.418 33.9101 143.741 33.4434C143.064 32.9534 142.516 32.3234 142.096 31.5534C141.676 30.7367 141.466 29.8034 141.466 28.7534V19.3034C141.466 18.1601 141.699 17.1334 142.166 16.2234C142.633 15.2901 143.263 14.5551 144.056 14.0184C144.803 13.5284 145.689 13.1084 146.716 12.7584C147.766 12.4084 148.793 12.1751 149.796 12.0584C150.636 11.9651 151.651 11.9184 152.841 11.9184C156.061 11.9184 159.141 12.1634 162.081 12.6534V16.7834C159.374 16.1301 156.294 15.8034 152.841 15.8034C148.898 15.8034 146.926 16.9467 146.926 19.2334V28.3684C146.926 29.4884 147.451 30.2817 148.501 30.7484C149.574 31.2151 151.184 31.4484 153.331 31.4484C154.474 31.4484 155.699 31.2734 157.006 30.9234V25.6384H153.296V22.0684H162.221V33.8634C161.054 34.2834 159.561 34.6334 157.741 34.9134C155.944 35.1934 154.288 35.3334 152.771 35.3334ZM166.634 12.2684H183.959V16.1534H172.094V21.3684H182.804V25.2534H172.094V31.0984H184.309V34.9834H166.634V12.2684Z" fill="#3C3C3C"/>
</svg>